<svg width="203" height="279" viewBox="0 0 203 279" fill="none" xmlns="http://www.w3.org/2000/svg">
<rect width="40" height="40" rx="20" fill="#F87171"/>
<path d="M21.3252 9.58774C21.2207 9.58467 21.1166 9.60261 21.0192 9.6405C20.9217 9.67838 20.8329 9.73545 20.7579 9.8083C20.6829 9.88115 20.6233 9.96832 20.5826 10.0646C20.5419 10.1609 20.521 10.2644 20.521 10.369V18.6982C20.521 19.1294 20.871 19.4794 21.3023 19.4794H29.6315C29.736 19.4794 29.8395 19.4585 29.9358 19.4178C30.0321 19.3771 30.1193 19.3175 30.1921 19.2425C30.265 19.1675 30.3221 19.0787 30.3599 18.9813C30.3978 18.8838 30.4158 18.7797 30.4127 18.6752C30.3406 16.2879 29.36 14.0182 27.6711 12.3293C25.9823 10.6405 23.7125 9.65989 21.3252 9.58774ZM18.7044 11.8867C18.7845 11.9599 18.8485 12.0491 18.8923 12.1485C18.936 12.2478 18.9586 12.3552 18.9585 12.4638V18.6982C18.9585 19.3198 19.2055 19.9159 19.645 20.3554C20.0845 20.795 20.6807 21.0419 21.3023 21.0419H27.5158C27.6245 21.0419 27.732 21.0645 27.8314 21.1084C27.9308 21.1523 28.02 21.2164 28.0932 21.2967C28.1665 21.377 28.2221 21.4717 28.2567 21.5747C28.2913 21.6777 28.304 21.7868 28.294 21.895C28.1283 23.6682 27.461 25.3576 26.3703 26.7654C25.2795 28.1733 23.8103 29.2413 22.1347 29.8446C20.459 30.4479 18.6462 30.5615 16.9084 30.172C15.1705 29.7826 13.5796 28.9063 12.3216 27.6456C11.0636 26.385 10.1907 24.7921 9.80504 23.0534C9.41934 21.3148 9.53681 19.5022 10.1437 17.8279C10.7506 16.1535 11.8218 14.6866 13.2319 13.5989C14.6421 12.5111 16.3329 11.8475 18.1065 11.6857C18.2146 11.6758 18.3237 11.6885 18.4266 11.7231C18.5296 11.7578 18.6242 11.8135 18.7044 11.8867Z" fill="white"/>
<rect x="8" y="239" width="40" height="40" rx="20" fill="#3B82F6"/>
<path d="M34.6668 265.111H21.3335V257.333C21.3335 253.651 24.3185 250.666 28.0002 250.666C31.6818 250.666 34.6668 253.651 34.6668 257.333V265.111Z" fill="white" stroke="white" stroke-width="1.34454" stroke-linejoin="round"/>
<path d="M19.1114 269H36.8892M16.8892 252.889L18.5558 253.445M21.8892 247.889L22.4447 249.556M20.2225 251.222L18.5558 249.556" stroke="white" stroke-width="1.34454" stroke-linecap="round" stroke-linejoin="round"/>
<rect x="91" y="122" width="40" height="40" rx="20" fill="#06B6D4"/>
<path fill-rule="evenodd" clip-rule="evenodd" d="M114.921 133.667C115.501 133.667 116.07 133.828 116.564 134.133C117.057 134.438 117.456 134.875 117.716 135.394L119.16 138.28C119.414 138.176 119.664 138.064 119.91 137.943C120.157 137.819 120.443 137.799 120.705 137.887C120.967 137.974 121.184 138.162 121.307 138.409C121.431 138.657 121.451 138.943 121.364 139.205C121.276 139.467 121.088 139.684 120.841 139.807C120.59 139.919 120.339 140.027 120.086 140.132L121.087 142.135C121.304 142.57 121.417 143.049 121.417 143.534V146.167C121.417 146.606 121.324 147.041 121.145 147.442C120.965 147.844 120.703 148.203 120.375 148.496V149.813C120.375 150.227 120.211 150.624 119.918 150.917C119.624 151.21 119.227 151.375 118.813 151.375C118.398 151.375 118.001 151.21 117.708 150.917C117.415 150.624 117.25 150.227 117.25 149.813V149.292H104.75V149.813C104.75 150.227 104.586 150.624 104.293 150.917C103.999 151.21 103.602 151.375 103.188 151.375C102.773 151.375 102.376 151.21 102.083 150.917C101.79 150.624 101.625 150.227 101.625 149.813V148.496C100.986 147.923 100.583 147.092 100.583 146.167V143.533C100.584 143.048 100.697 142.57 100.914 142.136L101.906 140.149C101.655 140.043 101.407 139.93 101.162 139.808C100.916 139.683 100.729 139.467 100.641 139.205C100.553 138.943 100.572 138.657 100.693 138.409C100.754 138.287 100.839 138.178 100.942 138.088C101.045 137.998 101.165 137.93 101.295 137.886C101.425 137.843 101.562 137.826 101.699 137.835C101.835 137.845 101.968 137.882 102.091 137.943C102.337 138.064 102.587 138.177 102.841 138.28L104.285 135.395C104.544 134.876 104.943 134.439 105.436 134.134C105.93 133.829 106.499 133.667 107.079 133.667H114.921ZM106.313 143.042C105.898 143.042 105.501 143.206 105.208 143.499C104.915 143.792 104.75 144.19 104.75 144.604C104.75 145.019 104.915 145.416 105.208 145.709C105.501 146.002 105.898 146.167 106.313 146.167C106.727 146.167 107.124 146.002 107.418 145.709C107.711 145.416 107.875 145.019 107.875 144.604C107.875 144.19 107.711 143.792 107.418 143.499C107.124 143.206 106.727 143.042 106.313 143.042ZM115.688 143.042C115.273 143.042 114.876 143.206 114.583 143.499C114.29 143.792 114.125 144.19 114.125 144.604C114.125 145.019 114.29 145.416 114.583 145.709C114.876 146.002 115.273 146.167 115.688 146.167C116.102 146.167 116.499 146.002 116.793 145.709C117.086 145.416 117.25 145.019 117.25 144.604C117.25 144.19 117.086 143.792 116.793 143.499C116.499 143.206 116.102 143.042 115.688 143.042ZM114.921 135.75H107.079C106.908 135.75 106.739 135.792 106.588 135.873C106.437 135.954 106.308 136.071 106.213 136.214L106.148 136.326L104.825 138.97C106.438 139.453 108.611 139.917 111 139.917C113.231 139.917 115.272 139.513 116.844 139.066L117.174 138.97L115.852 136.326C115.776 136.173 115.662 136.041 115.522 135.942C115.382 135.843 115.22 135.78 115.05 135.758L114.922 135.75H114.921Z" fill="white"/>
<rect x="56" y="247" width="53" height="25" rx="12.5" fill="#22C55E"/>
<path d="M80.5586 252.857V256.48H82.2812V257.738H80.5586V261.895H79.041V252.857H80.5586ZM81.0508 263.74V264.971H72.6426V260.951H74.1602V263.74H81.0508ZM74.2832 253.678C76.1562 253.678 77.6055 254.977 77.6191 256.795C77.6055 258.586 76.1562 259.898 74.2832 259.898C72.4102 259.898 70.9336 258.586 70.9473 256.795C70.9336 254.977 72.4102 253.678 74.2832 253.678ZM74.2832 255.004C73.2441 255.004 72.4238 255.701 72.4375 256.795C72.4238 257.861 73.2441 258.559 74.2832 258.559C75.3223 258.559 76.1289 257.861 76.1289 256.795C76.1289 255.701 75.3223 255.004 74.2832 255.004ZM93.2598 252.871V261.895H91.7422V257.369H89.5547V256.139H91.7422V252.871H93.2598ZM93.5742 263.74V264.971H85.1523V261.102H86.6699V263.74H93.5742ZM87.4492 255.332C87.4492 256.822 88.4473 258.354 90.3613 258.982L89.5957 260.199C88.2148 259.728 87.2373 258.791 86.6973 257.615C86.1504 258.921 85.1182 259.953 83.6621 260.459L82.8828 259.229C84.8516 258.586 85.9043 256.959 85.9043 255.318V254.99H83.334V253.76H90.0059V254.99H87.4492V255.332Z" fill="white"/>
<rect x="140" y="130" width="53" height="25" rx="12.5" fill="#EAB308"/>
<path d="M166.076 142.748V143.979H161.168V148.203H159.664V143.979H154.811V142.748H166.076ZM165.037 136.555V137.758H161.332C161.421 139.111 163.048 140.41 165.488 140.725L164.941 141.914C162.836 141.62 161.195 140.656 160.443 139.316C159.691 140.656 158.051 141.62 155.973 141.914L155.398 140.725C157.825 140.41 159.452 139.111 159.568 137.758H155.85V136.555H165.037ZM170.916 136.719C172.871 136.705 174.307 137.949 174.32 139.699C174.307 141.463 172.871 142.693 170.916 142.693C168.975 142.693 167.525 141.463 167.525 139.699C167.525 137.949 168.975 136.705 170.916 136.719ZM170.916 138.031C169.836 138.031 169.029 138.674 169.029 139.699C169.029 140.738 169.836 141.367 170.916 141.367C172.01 141.367 172.83 140.738 172.83 139.699C172.83 138.674 172.01 138.031 170.916 138.031ZM177.205 135.857V148.23H175.688V135.857H177.205ZM166.965 144.402C169.193 144.402 172.283 144.375 174.949 143.992L175.072 145.1C172.297 145.633 169.33 145.646 167.156 145.646L166.965 144.402Z" fill="white"/>
<rect x="49" y="8" width="53" height="25" rx="12.5" fill="#EF4444"/>
<path d="M67.8438 14.4043C69.7168 14.3906 71.084 15.457 71.084 17.002C71.084 18.5195 69.7168 19.5996 67.8438 19.5859C65.9844 19.5996 64.6309 18.5195 64.6309 17.002C64.6309 15.457 65.9844 14.3906 67.8438 14.4043ZM67.8438 15.6348C66.832 15.6211 66.0938 16.1543 66.1074 17.002C66.0938 17.8359 66.832 18.3418 67.8438 18.3418C68.8965 18.3418 69.6348 17.8359 69.6348 17.002C69.6348 16.1543 68.8965 15.6211 67.8438 15.6348ZM74.1465 13.8711V26.2031H72.6426V13.8711H74.1465ZM63.8242 20.4336C66.0527 20.4336 69.1699 20.3926 71.8359 19.9961L71.9453 21.1172C70.8789 21.3223 69.7715 21.4521 68.6914 21.5273V25.834H67.1602V21.623C66.0186 21.6709 64.9453 21.6777 64.0156 21.6914L63.8242 20.4336ZM86.2598 13.8574V21.3359H84.7422V18.7793H82.9785V17.5215H84.7422V13.8574H86.2598ZM86.2598 21.8965V26.0664H78.043V21.8965H86.2598ZM79.5605 23.0996V24.8359H84.7695V23.0996H79.5605ZM83.1836 15.0059V16.2363H75.9375V15.0059H78.8086V13.7617H80.3125V15.0059H83.1836ZM79.5605 16.7148C81.2832 16.7148 82.4863 17.6309 82.5 18.9297C82.4863 20.2695 81.2832 21.1445 79.5605 21.1445C77.8516 21.1445 76.6348 20.2695 76.6348 18.9297C76.6348 17.6309 77.8516 16.7148 79.5605 16.7148ZM79.5605 17.8633C78.6719 17.8633 78.084 18.2734 78.084 18.9297C78.084 19.6133 78.6719 20.0098 79.5605 20.0098C80.4492 20.0098 81.0371 19.6133 81.0371 18.9297C81.0371 18.2734 80.4492 17.8633 79.5605 17.8633Z" fill="white"/>
</svg>
