<svg width="26" height="26" viewBox="0 0 26 26" fill="none" xmlns="http://www.w3.org/2000/svg">
<path fill-rule="evenodd" clip-rule="evenodd" d="M9.47921 7.04134C9.47921 6.10756 9.85015 5.21202 10.5104 4.55174C11.1707 3.89145 12.0663 3.52051 13 3.52051C13.9338 3.52051 14.8294 3.89145 15.4896 4.55174C16.1499 5.21202 16.5209 6.10756 16.5209 7.04134V13.5413C16.5209 14.4751 16.1499 15.3707 15.4896 16.0309C14.8294 16.6912 13.9338 17.0622 13 17.0622C12.0663 17.0622 11.1707 16.6912 10.5104 16.0309C9.85015 15.3707 9.47921 14.4751 9.47921 13.5413V7.04134ZM13 5.14551C12.4972 5.14551 12.015 5.34525 11.6595 5.70078C11.3039 6.05632 11.1042 6.53854 11.1042 7.04134V13.5413C11.1042 14.0441 11.3039 14.5264 11.6595 14.8819C12.015 15.2374 12.4972 15.4372 13 15.4372C13.5028 15.4372 13.9851 15.2374 14.3406 14.8819C14.6961 14.5264 14.8959 14.0441 14.8959 13.5413V7.04134C14.8959 6.53854 14.6961 6.05632 14.3406 5.70078C13.9851 5.34525 13.5028 5.14551 13 5.14551ZM7.58337 12.7288C7.79886 12.7288 8.00552 12.8144 8.1579 12.9668C8.31027 13.1192 8.39587 13.3259 8.39587 13.5413C8.39587 14.7624 8.88095 15.9335 9.7444 16.797C10.6079 17.6604 11.7789 18.1455 13 18.1455C14.2211 18.1455 15.3922 17.6604 16.2557 16.797C17.1191 15.9335 17.6042 14.7624 17.6042 13.5413C17.6042 13.3259 17.6898 13.1192 17.8422 12.9668C17.9946 12.8144 18.2012 12.7288 18.4167 12.7288C18.6322 12.7288 18.8389 12.8144 18.9912 12.9668C19.1436 13.1192 19.2292 13.3259 19.2292 13.5413C19.2292 15.0527 18.6798 16.5125 17.6832 17.6488C16.6867 18.7851 15.311 19.5203 13.8125 19.7174V20.8538H16.25C16.4655 20.8538 16.6722 20.9394 16.8246 21.0918C16.9769 21.2442 17.0625 21.4509 17.0625 21.6663C17.0625 21.8818 16.9769 22.0885 16.8246 22.2409C16.6722 22.3932 16.4655 22.4788 16.25 22.4788H9.75004C9.53455 22.4788 9.32789 22.3932 9.17552 22.2409C9.02314 22.0885 8.93754 21.8818 8.93754 21.6663C8.93754 21.4509 9.02314 21.2442 9.17552 21.0918C9.32789 20.9394 9.53455 20.8538 9.75004 20.8538H12.1875V19.7174C10.6891 19.5203 9.31341 18.7851 8.31685 17.6488C7.3203 16.5125 6.77084 15.0527 6.77087 13.5413C6.77087 13.3259 6.85648 13.1192 7.00885 12.9668C7.16122 12.8144 7.36789 12.7288 7.58337 12.7288Z" fill="#6B7280"/>
</svg>
