<svg width="32" height="32" viewBox="0 0 32 32" fill="none" xmlns="http://www.w3.org/2000/svg">
<path d="M16.0189 5.33085C11.7975 5.36418 7.92955 8.20152 6.91622 12.7122C4.32822 13.8002 2.68555 16.2562 2.68555 19.1642C2.68555 23.1775 5.85356 26.6641 9.76823 26.6641H10.6855C11.4215 26.6641 12.0189 26.0681 12.0189 25.3308C12.0189 24.5948 11.4215 23.9975 10.6855 23.9975H9.76823C7.3869 23.9975 5.35221 21.7588 5.35221 19.1642C5.35221 17.1735 6.59754 15.5188 8.47754 14.9562C8.97487 14.8068 9.32022 14.3868 9.39355 13.8722C9.90822 10.2642 12.8082 8.02284 16.0189 7.99751C19.5935 7.96951 22.7135 11.0468 22.6855 14.6642C22.6855 14.7442 22.6855 15.8148 22.6855 16.1228C22.6855 16.7428 23.0802 17.2748 23.6855 17.4135C25.4402 17.8202 26.6855 19.1962 26.6855 20.6642C26.6855 22.4628 24.9309 23.9975 22.6855 23.9975H21.3522C20.6162 23.9975 20.0189 24.5948 20.0189 25.3308C20.0189 26.0668 20.6162 26.6641 21.3522 26.6641H22.6855C26.3309 26.6641 29.3522 24.0201 29.3522 20.6642C29.3522 18.2442 27.7322 16.1028 25.3349 15.1775C25.3375 14.9402 25.3522 14.6988 25.3522 14.6642C25.3922 9.54951 21.0735 5.29085 16.0189 5.33085ZM16.0189 13.3308L12.0029 17.3482L14.6855 17.3308V25.3308C14.6855 26.0668 15.2829 26.6641 16.0189 26.6641C16.7549 26.6641 17.3522 26.0668 17.3522 25.3308V17.3308L20.0349 17.3428L16.0189 13.3308Z" fill="#9CA3AF"/>
</svg>
