<svg width="24" height="24" viewBox="0 0 24 24" fill="none" xmlns="http://www.w3.org/2000/svg">
<rect width="24" height="24" rx="12" fill="#F97316"/>
<path d="M9.72004 17.1513C9.99201 17.4952 10.3386 17.7728 10.7335 17.9631C11.1285 18.1535 11.5616 18.2516 12 18.25C12.4385 18.2516 12.8716 18.1535 13.2665 17.9631C13.6615 17.7728 14.0081 17.4952 14.28 17.1513C12.7669 17.356 11.2331 17.356 9.72004 17.1513ZM16.2188 10.125V10.565C16.2188 11.0931 16.3688 11.6094 16.6513 12.0487L17.3438 13.1256C17.9757 14.1094 17.4932 15.4462 16.3938 15.7569C13.5211 16.5704 10.479 16.5704 7.60629 15.7569C6.50691 15.4462 6.02441 14.1094 6.65629 13.1256L7.34879 12.0487C7.63205 11.6057 7.78236 11.0908 7.78191 10.565V10.125C7.78191 7.70875 9.67066 5.75 12 5.75C14.3294 5.75 16.2188 7.70875 16.2188 10.125Z" fill="white"/>
</svg>
