<svg width="24" height="24" viewBox="0 0 24 24" fill="none" xmlns="http://www.w3.org/2000/svg">
<rect width="24" height="24" rx="12" fill="#06B6D4"/>
<path fill-rule="evenodd" clip-rule="evenodd" d="M14.3525 7C14.7007 7.00001 15.0419 7.09696 15.3381 7.27998C15.6343 7.463 15.8736 7.72487 16.0294 8.03625L16.8956 9.76812C17.0481 9.70562 17.1981 9.63812 17.3456 9.56562C17.494 9.49153 17.6657 9.4794 17.823 9.53191C17.9803 9.58442 18.1103 9.69727 18.1844 9.84562C18.2585 9.99398 18.2706 10.1657 18.2181 10.323C18.1656 10.4803 18.0527 10.6103 17.9044 10.6844C17.7541 10.7512 17.6031 10.8162 17.4512 10.8794L18.0519 12.0812C18.1822 12.3418 18.2501 12.6292 18.25 12.9206V14.5C18.25 14.7638 18.1943 15.0246 18.0866 15.2654C17.9789 15.5063 17.8216 15.7216 17.625 15.8975V16.6875C17.625 16.9361 17.5262 17.1746 17.3504 17.3504C17.1746 17.5262 16.9361 17.625 16.6875 17.625C16.4389 17.625 16.2004 17.5262 16.0246 17.3504C15.8488 17.1746 15.75 16.9361 15.75 16.6875V16.375H8.25V16.6875C8.25 16.9361 8.15123 17.1746 7.97541 17.3504C7.7996 17.5262 7.56114 17.625 7.3125 17.625C7.06386 17.625 6.8254 17.5262 6.64959 17.3504C6.47377 17.1746 6.375 16.9361 6.375 16.6875V15.8975C5.99125 15.5537 5.75 15.055 5.75 14.5V12.92C5.75012 12.629 5.81795 12.3421 5.94812 12.0819L6.54375 10.8894C6.39292 10.826 6.24396 10.7579 6.09688 10.685C5.94927 10.6099 5.83707 10.4799 5.78446 10.3229C5.73185 10.1659 5.74304 9.99446 5.81563 9.84562C5.85229 9.77214 5.90307 9.70661 5.96507 9.65276C6.02708 9.59891 6.09908 9.55781 6.17698 9.53181C6.25487 9.50581 6.33713 9.49541 6.41904 9.50121C6.50095 9.50701 6.58092 9.5289 6.65437 9.56562C6.80229 9.63854 6.95229 9.70604 7.10437 9.76812L7.97062 8.03687C8.12628 7.72538 8.3656 7.46338 8.66178 7.28025C8.95795 7.09711 9.29928 7.00007 9.6475 7H14.3525ZM9.1875 12.625C8.93886 12.625 8.7004 12.7238 8.52459 12.8996C8.34877 13.0754 8.25 13.3139 8.25 13.5625C8.25 13.8111 8.34877 14.0496 8.52459 14.2254C8.7004 14.4012 8.93886 14.5 9.1875 14.5C9.43614 14.5 9.6746 14.4012 9.85041 14.2254C10.0262 14.0496 10.125 13.8111 10.125 13.5625C10.125 13.3139 10.0262 13.0754 9.85041 12.8996C9.6746 12.7238 9.43614 12.625 9.1875 12.625ZM14.8125 12.625C14.5639 12.625 14.3254 12.7238 14.1496 12.8996C13.9738 13.0754 13.875 13.3139 13.875 13.5625C13.875 13.8111 13.9738 14.0496 14.1496 14.2254C14.3254 14.4012 14.5639 14.5 14.8125 14.5C15.0611 14.5 15.2996 14.4012 15.4754 14.2254C15.6512 14.0496 15.75 13.8111 15.75 13.5625C15.75 13.3139 15.6512 13.0754 15.4754 12.8996C15.2996 12.7238 15.0611 12.625 14.8125 12.625ZM14.3525 8.25H9.6475C9.54463 8.24998 9.44335 8.27536 9.35264 8.32388C9.26193 8.3724 9.18459 8.44255 9.1275 8.52812L9.08875 8.59562L8.295 10.1819C9.2625 10.4719 10.5662 10.75 12 10.75C13.3387 10.75 14.5631 10.5075 15.5062 10.2394L15.7044 10.1819L14.9113 8.59562C14.8653 8.50363 14.7973 8.42442 14.7133 8.365C14.6294 8.30558 14.532 8.2678 14.43 8.255L14.3531 8.25H14.3525Z" fill="white"/>
</svg>
