<svg width="24" height="24" viewBox="0 0 24 24" fill="none" xmlns="http://www.w3.org/2000/svg">
<rect width="24" height="24" rx="12" fill="#22C55E"/>
<path d="M15.7312 12.0186L14.4813 14.1874L16.0625 16.1749L18.25 12.3874L15.7312 12.0186ZM8.875 15.7499V14.0561C8.325 13.8124 7.9375 13.2686 7.9375 12.6249C7.9375 12.2686 8.0625 11.9374 8.26875 11.6874L7.0375 10.9686C6.40625 10.5999 6.1875 9.79363 6.55625 9.16238L7.41875 7.66238C7.59461 7.35926 7.88314 7.13793 8.22147 7.04662C8.5598 6.9553 8.92051 7.00141 9.225 7.17488L14.3062 10.1249C14.9 10.4561 15.1063 11.2186 14.7625 11.8186L13.825 13.4436C13.4812 14.0374 12.7125 14.2436 12.1187 13.8999L10.9438 13.2249C10.7875 13.5936 10.4938 13.8936 10.125 14.0561V15.7499C10.125 16.4374 9.5625 16.9999 8.875 16.9999H5.75V15.7499H8.875Z" fill="white"/>
</svg>
