<svg width="24" height="24" viewBox="0 0 24 24" fill="none" xmlns="http://www.w3.org/2000/svg">
<rect width="24" height="24" rx="12" fill="#F87171"/>
<path d="M12.7946 5.75264C12.7319 5.7508 12.6695 5.76157 12.611 5.7843C12.5526 5.80703 12.4992 5.84127 12.4543 5.88498C12.4093 5.92869 12.3735 5.98099 12.3491 6.03878C12.3247 6.09656 12.3121 6.15866 12.3121 6.22139V11.2189C12.3121 11.4776 12.5221 11.6876 12.7809 11.6876H17.7784C17.8411 11.6877 17.9032 11.6751 17.961 11.6507C18.0188 11.6263 18.0711 11.5905 18.1148 11.5455C18.1585 11.5005 18.1927 11.4472 18.2155 11.3888C18.2382 11.3303 18.249 11.2678 18.2471 11.2051C18.2038 9.77276 17.6155 8.41091 16.6022 7.3976C15.5889 6.38429 14.227 5.79594 12.7946 5.75264ZM11.2221 7.13202C11.2702 7.17597 11.3086 7.22946 11.3349 7.28907C11.3611 7.34869 11.3747 7.41313 11.3746 7.47827V11.2189C11.3746 11.5919 11.5228 11.9495 11.7865 12.2133C12.0502 12.477 12.4079 12.6251 12.7809 12.6251H16.509C16.5742 12.6251 16.6387 12.6387 16.6984 12.665C16.758 12.6914 16.8115 12.7298 16.8555 12.778C16.8994 12.8262 16.9328 12.883 16.9535 12.9448C16.9743 13.0066 16.9819 13.0721 16.9759 13.137C16.8765 14.2009 16.4761 15.2146 15.8217 16.0593C15.1672 16.904 14.2857 17.5448 13.2803 17.9068C12.2749 18.2687 11.1873 18.3369 10.1445 18.1032C9.10184 17.8696 8.14725 17.3438 7.39247 16.5874C6.63769 15.831 6.11395 14.8753 5.88253 13.8321C5.65112 12.7889 5.7216 11.7013 6.08573 10.6967C6.44986 9.69211 7.09258 8.81198 7.93867 8.15933C8.78477 7.50668 9.79924 7.10851 10.8634 7.01139C10.9283 7.00546 10.9937 7.01312 11.0555 7.03389C11.1172 7.05466 11.174 7.08808 11.2221 7.13202Z" fill="white"/>
</svg>
